<?xml version="1.0" standalone="no"?>
<!DOCTYPE svg PUBLIC "-//W3C//DTD SVG 20010904//EN"
 "http://www.w3.org/TR/2001/REC-SVG-20010904/DTD/svg10.dtd">
<svg version="1.0" xmlns="http://www.w3.org/2000/svg"
 width="512.000000pt" height="512.000000pt" viewBox="0 0 512.000000 512.000000"
 preserveAspectRatio="xMidYMid meet">
<metadata>
Created by potrace 1.16, written by Peter Selinger 2001-2019
</metadata>
<g transform="translate(0.000000,512.000000) scale(0.100000,-0.100000)"
fill="#000000" stroke="none">
<path d="M2315 4599 c-686 -86 -1274 -498 -1584 -1108 -149 -295 -221 -596
-221 -931 0 -1050 770 -1913 1820 -2040 46 -5 151 -10 232 -10 1137 0 2048
911 2048 2050 0 1035 -760 1902 -1783 2035 -128 16 -395 18 -512 4z m-82
-1164 c98 -26 176 -72 255 -151 l72 -74 73 73 c142 143 311 195 495 152 99
-23 179 -70 258 -149 188 -188 228 -481 100 -734 -83 -165 -233 -323 -635
-667 -242 -208 -245 -210 -291 -210 -46 0 -49 2 -291 210 -402 344 -552 502
-635 667 -125 248 -89 536 92 728 132 139 332 201 507 155z"/>
</g>
</svg>
